<svg width="32" height="32" viewBox="0 0 32 32" fill="none" xmlns="http://www.w3.org/2000/svg">
<path d="M16 25.6C22.4 25.6 24 19.2 24 19.2H8C8 19.2 9.6 25.6 16 25.6Z" fill="#FF9901"/>
<path d="M16 0C7.1776 0 0 7.1776 0 16C0 24.8224 7.1776 32 16 32C24.8224 32 32 24.8224 32 16C32 7.1776 24.8224 0 16 0ZM16 28.8C8.9424 28.8 3.2 23.0576 3.2 16C3.2 8.9424 8.9424 3.2 16 3.2C23.0576 3.2 28.8 8.9424 28.8 16C28.8 23.0576 23.0576 28.8 16 28.8Z" fill="#FF9901"/>
<path d="M17.6 16L20.8 16.0192C20.8192 15.28 21.1104 14.4 22.4 14.4C23.6896 14.4 23.9808 15.28 24 16H27.2C27.2 14.0704 25.9216 11.2 22.4 11.2C18.8784 11.2 17.6 14.0704 17.6 16ZM9.59999 14.4C10.8896 14.4 11.1808 15.28 11.2 16H14.4C14.4 14.0704 13.1216 11.2 9.59999 11.2C6.07839 11.2 4.79999 14.0704 4.79999 16L7.99999 16.0192C8.01919 15.28 8.31039 14.4 9.59999 14.4Z" fill="#FF9901"/>
</svg>
